<svg width="63" height="23" viewBox="0 0 63 23" fill="none" xmlns="http://www.w3.org/2000/svg">
<path d="M10 3.12134H3C2.46957 3.12134 1.96086 3.33205 1.58579 3.70712C1.21071 4.0822 1 4.5909 1 5.12134V19.1213C1 19.6518 1.21071 20.1605 1.58579 20.5356C1.96086 20.9106 2.46957 21.1213 3 21.1213H17C17.5304 21.1213 18.0391 20.9106 18.4142 20.5356C18.7893 20.1605 19 19.6518 19 19.1213V12.1213" stroke="black" stroke-width="2" stroke-linecap="round" stroke-linejoin="round"/>
<path d="M17.5 1.62132C17.8978 1.2235 18.4374 1 19 1C19.5626 1 20.1022 1.2235 20.5 1.62132C20.8978 2.01915 21.1213 2.55871 21.1213 3.12132C21.1213 3.68393 20.8978 4.2235 20.5 4.62132L11 14.1213L7 15.1213L8 11.1213L17.5 1.62132Z" stroke="black" stroke-width="2" stroke-linecap="round" stroke-linejoin="round"/>
<path d="M44 5.12134H46H62" stroke="black" stroke-width="2" stroke-linecap="round" stroke-linejoin="round"/>
<path d="M49 5.12134V3.12134C49 2.5909 49.2107 2.0822 49.5858 1.70712C49.9609 1.33205 50.4696 1.12134 51 1.12134H55C55.5304 1.12134 56.0391 1.33205 56.4142 1.70712C56.7893 2.0822 57 2.5909 57 3.12134V5.12134M60 5.12134V19.1213C60 19.6518 59.7893 20.1605 59.4142 20.5356C59.0391 20.9106 58.5304 21.1213 58 21.1213H48C47.4696 21.1213 46.9609 20.9106 46.5858 20.5356C46.2107 20.1605 46 19.6518 46 19.1213V5.12134H60Z" stroke="black" stroke-width="2" stroke-linecap="round" stroke-linejoin="round"/>
<path d="M51 10.1213V16.1213" stroke="black" stroke-width="2" stroke-linecap="round" stroke-linejoin="round"/>
<path d="M55 10.1213V16.1213" stroke="black" stroke-width="2" stroke-linecap="round" stroke-linejoin="round"/>
</svg>
