<svg width="76" height="49" viewBox="0 0 76 49" fill="none" xmlns="http://www.w3.org/2000/svg">
<path d="M14.0889 44.8662H16.6329C18.7325 44.8662 19.9483 43.5674 19.9483 41.3311V41.3213C19.9483 39.1094 18.7227 37.8203 16.6329 37.8203H14.0889V44.8662ZM15.1827 43.9238V38.7627H16.5108C17.9707 38.7627 18.835 39.7148 18.835 41.3359V41.3457C18.835 42.9814 17.9854 43.9238 16.5108 43.9238H15.1827ZM22.5061 44.9541C23.2093 44.9541 23.7659 44.6514 24.0784 44.1143H24.1614V44.8662H25.2112V41.2383C25.2112 40.125 24.4593 39.4609 23.1262 39.4609C21.9202 39.4609 21.0852 40.042 20.9583 40.9111L20.9534 40.9453H21.9739L21.9788 40.9258C22.1057 40.5498 22.4915 40.335 23.0774 40.335C23.7952 40.335 24.1614 40.6572 24.1614 41.2383V41.707L22.7259 41.79C21.4612 41.8682 20.7483 42.4199 20.7483 43.3672V43.377C20.7483 44.3389 21.4954 44.9541 22.5061 44.9541ZM21.803 43.333V43.3232C21.803 42.8447 22.135 42.5811 22.8675 42.5371L24.1614 42.4541V42.9082C24.1614 43.5918 23.5804 44.1094 22.7893 44.1094C22.218 44.1094 21.803 43.8213 21.803 43.333ZM28.3941 44.9688C29.6538 44.9688 30.5913 44.2998 30.5913 43.3184V43.3086C30.5913 42.542 30.103 42.1074 29.0825 41.8682L28.2427 41.6777C27.647 41.5361 27.4029 41.3311 27.4029 40.999V40.9893C27.4029 40.5645 27.8228 40.2764 28.4038 40.2764C28.9995 40.2764 29.3755 40.5547 29.478 40.9258V40.9355H30.4888V40.9307C30.396 40.0664 29.6196 39.4609 28.4087 39.4609C27.2075 39.4609 26.3482 40.125 26.3482 41.0479V41.0527C26.3482 41.8291 26.812 42.2832 27.813 42.5127L28.6577 42.708C29.273 42.8496 29.522 43.0742 29.522 43.4062V43.416C29.522 43.8506 29.0679 44.1484 28.4136 44.1484C27.7837 44.1484 27.398 43.8799 27.2661 43.4795L27.2612 43.4746H26.2017V43.4795C26.3042 44.3682 27.1148 44.9688 28.3941 44.9688ZM31.6648 44.8662H32.7244V41.7559C32.7244 40.9014 33.2078 40.3691 33.9841 40.3691C34.7605 40.3691 35.1267 40.8037 35.1267 41.6826V44.8662H36.1814V41.4336C36.1814 40.1689 35.5271 39.4609 34.3406 39.4609C33.5691 39.4609 33.0613 39.8027 32.8025 40.3691H32.7244V37.4834H31.6648V44.8662ZM40.2383 44.9541C41.5762 44.9541 42.4355 43.8848 42.4355 42.2197V42.21C42.4355 40.5303 41.5859 39.4707 40.2383 39.4707C39.5107 39.4707 38.8906 39.832 38.6074 40.4033H38.5293V37.4834H37.4697V44.8662H38.5293V44.0312H38.6074C38.915 44.6123 39.4961 44.9541 40.2383 44.9541ZM39.9404 44.0508C39.0566 44.0508 38.5098 43.3525 38.5098 42.2197V42.21C38.5098 41.0771 39.0566 40.3789 39.9404 40.3789C40.8242 40.3789 41.3564 41.0723 41.3564 42.21V42.2197C41.3564 43.3574 40.8242 44.0508 39.9404 44.0508ZM45.7063 44.9688C47.259 44.9688 48.2112 43.9287 48.2112 42.2197V42.21C48.2112 40.501 47.2541 39.4609 45.7063 39.4609C44.1536 39.4609 43.1965 40.5059 43.1965 42.21V42.2197C43.1965 43.9287 44.1487 44.9688 45.7063 44.9688ZM45.7063 44.085C44.7932 44.085 44.2805 43.3965 44.2805 42.2197V42.21C44.2805 41.0332 44.7932 40.3447 45.7063 40.3447C46.6145 40.3447 47.1321 41.0332 47.1321 42.21V42.2197C47.1321 43.3916 46.6145 44.085 45.7063 44.085ZM50.6909 44.9541C51.394 44.9541 51.9507 44.6514 52.2632 44.1143H52.3462V44.8662H53.396V41.2383C53.396 40.125 52.644 39.4609 51.311 39.4609C50.105 39.4609 49.27 40.042 49.143 40.9111L49.1382 40.9453H50.1587L50.1636 40.9258C50.2905 40.5498 50.6763 40.335 51.2622 40.335C51.98 40.335 52.3462 40.6572 52.3462 41.2383V41.707L50.9106 41.79C49.646 41.8682 48.9331 42.4199 48.9331 43.3672V43.377C48.9331 44.3389 49.6802 44.9541 50.6909 44.9541ZM49.9878 43.333V43.3232C49.9878 42.8447 50.3198 42.5811 51.0522 42.5371L52.3462 42.4541V42.9082C52.3462 43.5918 51.7651 44.1094 50.9741 44.1094C50.4028 44.1094 49.9878 43.8213 49.9878 43.333ZM54.6501 44.8662H55.7097V41.6973C55.7097 40.9307 56.2614 40.4326 57.072 40.4326C57.2722 40.4326 57.4529 40.457 57.6433 40.4961V39.5195C57.5359 39.4951 57.3503 39.4707 57.1794 39.4707C56.4714 39.4707 55.9782 39.8027 55.7878 40.3643H55.7097V39.5635H54.6501V44.8662ZM60.2109 44.9541C60.9531 44.9541 61.5341 44.6123 61.8418 44.0312H61.9248V44.8662H62.9795V37.4834H61.9248V40.4033H61.8418C61.5586 39.832 60.9384 39.4707 60.2109 39.4707C58.8632 39.4707 58.0136 40.5303 58.0136 42.21V42.2197C58.0136 43.8848 58.8779 44.9541 60.2109 44.9541ZM60.5136 44.0508C59.625 44.0508 59.0927 43.3574 59.0927 42.2197V42.21C59.0927 41.0723 59.625 40.3789 60.5136 40.3789C61.3925 40.3789 61.9394 41.0771 61.9394 42.21V42.2197C61.9394 43.3525 61.3974 44.0508 60.5136 44.0508Z" fill="#8A8A8A"/>
<path d="M29 15L38 8L47 15V26C47 26.5304 46.7893 27.0391 46.4142 27.4142C46.0391 27.7893 45.5304 28 45 28H31C30.4696 28 29.9609 27.7893 29.5858 27.4142C29.2107 27.0391 29 26.5304 29 26V15Z" stroke="#8A8A8A" stroke-width="2" stroke-linecap="round" stroke-linejoin="round"/>
<path d="M35 28V18H41V28" stroke="#8A8A8A" stroke-width="2" stroke-linecap="round" stroke-linejoin="round"/>
</svg>
