<svg width="79" height="19" viewBox="0 0 79 19" fill="none" xmlns="http://www.w3.org/2000/svg">
<path d="M0.394684 18H11.1291V15.7383H3.01968V10.4883H10.6955V8.28516H3.01968V3.35156H11.1291V1.08984H0.394684V18ZM12.3539 18H15.0961L17.8266 13.4648H17.8852L20.6156 18H23.4047L19.3969 11.7656L23.4516 5.67188H20.6508L18.0023 10.1367H17.9437L15.2602 5.67188H12.4125L16.432 11.8477L12.3539 18ZM24.8991 18H27.4303V10.8633C27.4303 8.94141 28.5905 7.60547 30.3366 7.60547C32.1178 7.60547 33.1491 8.82422 33.1491 10.8633V18H35.6803V10.3828C35.6803 7.40625 33.9459 5.4375 31.3092 5.4375C29.4694 5.4375 28.1452 6.26953 27.4889 7.69922H27.4303V1.08984H24.8991V18ZM39.2723 3.77344C40.1044 3.77344 40.7489 3.11719 40.7489 2.32031C40.7489 1.51172 40.1044 0.855469 39.2723 0.855469C38.452 0.855469 37.7958 1.51172 37.7958 2.32031C37.7958 3.11719 38.452 3.77344 39.2723 3.77344ZM38.0067 18H40.538V5.67188H38.0067V18ZM49.462 18.2461C52.5909 18.2461 54.6183 15.7617 54.6183 11.8359V11.8242C54.6183 7.89844 52.5792 5.4375 49.4855 5.4375C47.7394 5.4375 46.3331 6.31641 45.5948 7.76953H45.5362V1.08984H43.005V18H45.5362V15.9141H45.5948C46.3214 17.3555 47.6925 18.2461 49.462 18.2461ZM48.7941 16.0664C46.8722 16.0664 45.5245 14.4023 45.5245 11.8359V11.8242C45.5245 9.26953 46.8839 7.60547 48.7941 7.60547C50.7862 7.60547 52.0284 9.22266 52.0284 11.8242V11.8359C52.0284 14.4609 50.7862 16.0664 48.7941 16.0664ZM57.7064 3.77344C58.5384 3.77344 59.183 3.11719 59.183 2.32031C59.183 1.51172 58.5384 0.855469 57.7064 0.855469C56.8861 0.855469 56.2298 1.51172 56.2298 2.32031C56.2298 3.11719 56.8861 3.77344 57.7064 3.77344ZM56.4408 18H58.972V5.67188H56.4408V18ZM65.6695 18.2461C66.1852 18.2461 66.6656 18.1875 66.9586 18.1406V16.1836C66.7711 16.207 66.5484 16.2305 66.2789 16.2305C65.2125 16.2305 64.65 15.8555 64.65 14.6016V7.6875H66.9586V5.67188H64.65V2.46094H62.0602V5.67188H60.2906V7.6875H62.0602V14.7539C62.0602 17.2148 63.232 18.2461 65.6695 18.2461ZM73.4334 18.2461C76.3397 18.2461 78.4491 16.6992 78.4491 14.4492V14.4375C78.4491 12.668 77.4881 11.6719 74.9686 11.0859L72.9647 10.6289C71.6405 10.3125 71.1366 9.79688 71.1366 9.03516V9.02344C71.1366 8.03906 71.992 7.39453 73.3514 7.39453C74.7811 7.39453 75.6248 8.14453 75.7772 9.22266L75.7889 9.30469H78.1678L78.1561 9.16406C78.0272 7.06641 76.2694 5.4375 73.3514 5.4375C70.5155 5.4375 68.5936 6.94922 68.5936 9.15234V9.16406C68.5936 10.957 69.7538 12.082 72.0975 12.6211L74.1131 13.0781C75.4373 13.3945 75.8827 13.8516 75.8827 14.6484V14.6602C75.8827 15.6562 74.9686 16.2891 73.4452 16.2891C71.8866 16.2891 71.0428 15.6211 70.8084 14.4844L70.785 14.3672H68.2772L68.2889 14.4727C68.5467 16.7227 70.3514 18.2461 73.4334 18.2461Z" fill="white"/>
</svg>
