<svg width="76" height="49" viewBox="0 0 76 49" fill="none" xmlns="http://www.w3.org/2000/svg">
<path d="M16.0002 44.8662H16.9963V39.6953H17.0744L19.1398 44.8662H19.9504L22.0207 39.6953H22.0939V44.8662H23.09V37.8203H21.8302L19.5841 43.4404H19.506L17.2599 37.8203H16.0002V44.8662ZM26.7221 44.9688C28.0795 44.9688 28.8119 44.1875 28.9877 43.4893L28.9975 43.4453L27.977 43.4502L27.9574 43.4893C27.8305 43.7627 27.4252 44.0996 26.7465 44.0996C25.8725 44.0996 25.3158 43.5088 25.2963 42.4932H29.0561V42.1221C29.0561 40.5303 28.1479 39.4609 26.6684 39.4609C25.1889 39.4609 24.2318 40.5693 24.2318 42.2246V42.2295C24.2318 43.9092 25.1693 44.9688 26.7221 44.9688ZM26.6732 40.3301C27.391 40.3301 27.9232 40.7891 28.0063 41.7363H25.3109C25.4037 40.8232 25.9506 40.3301 26.6732 40.3301ZM32.0045 44.9688C33.2643 44.9688 34.2018 44.2998 34.2018 43.3184V43.3086C34.2018 42.542 33.7135 42.1074 32.693 41.8682L31.8532 41.6777C31.2575 41.5361 31.0133 41.3311 31.0133 40.999V40.9893C31.0133 40.5645 31.4332 40.2764 32.0143 40.2764C32.61 40.2764 32.986 40.5547 33.0885 40.9258V40.9355H34.0993V40.9307C34.0065 40.0664 33.2301 39.4609 32.0192 39.4609C30.818 39.4609 29.9586 40.125 29.9586 41.0479V41.0527C29.9586 41.8291 30.4225 42.2832 31.4235 42.5127L32.2682 42.708C32.8834 42.8496 33.1325 43.0742 33.1325 43.4062V43.416C33.1325 43.8506 32.6784 44.1484 32.0241 44.1484C31.3942 44.1484 31.0084 43.8799 30.8766 43.4795L30.8717 43.4746H29.8121V43.4795C29.9147 44.3682 30.7252 44.9688 32.0045 44.9688ZM37.0575 44.9688C38.3173 44.9688 39.2548 44.2998 39.2548 43.3184V43.3086C39.2548 42.542 38.7665 42.1074 37.746 41.8682L36.9061 41.6777C36.3104 41.5361 36.0663 41.3311 36.0663 40.999V40.9893C36.0663 40.5645 36.4862 40.2764 37.0673 40.2764C37.663 40.2764 38.0389 40.5547 38.1415 40.9258V40.9355H39.1522V40.9307C39.0595 40.0664 38.2831 39.4609 37.0721 39.4609C35.871 39.4609 35.0116 40.125 35.0116 41.0479V41.0527C35.0116 41.8291 35.4755 42.2832 36.4764 42.5127L37.3212 42.708C37.9364 42.8496 38.1854 43.0742 38.1854 43.4062V43.416C38.1854 43.8506 37.7313 44.1484 37.077 44.1484C36.4471 44.1484 36.0614 43.8799 35.9296 43.4795L35.9247 43.4746H34.8651V43.4795C34.9677 44.3682 35.7782 44.9688 37.0575 44.9688ZM41.7345 44.9541C42.4376 44.9541 42.9943 44.6514 43.3068 44.1143H43.3898V44.8662H44.4396V41.2383C44.4396 40.125 43.6876 39.4609 42.3546 39.4609C41.1486 39.4609 40.3136 40.042 40.1866 40.9111L40.1818 40.9453H41.2023L41.2071 40.9258C41.3341 40.5498 41.7198 40.335 42.3058 40.335C43.0236 40.335 43.3898 40.6572 43.3898 41.2383V41.707L41.9542 41.79C40.6896 41.8682 39.9767 42.4199 39.9767 43.3672V43.377C39.9767 44.3389 40.7238 44.9541 41.7345 44.9541ZM41.0314 43.333V43.3232C41.0314 42.8447 41.3634 42.5811 42.0958 42.5371L43.3898 42.4541V42.9082C43.3898 43.5918 42.8087 44.1094 42.0177 44.1094C41.4464 44.1094 41.0314 43.8213 41.0314 43.333ZM47.9349 46.7363C49.4388 46.7363 50.391 45.9648 50.391 44.7588V39.5635H49.3363V40.4326H49.2728C48.9652 39.8369 48.389 39.4707 47.6468 39.4707C46.2699 39.4707 45.4252 40.54 45.4252 42.0537V42.0635C45.4252 43.5576 46.265 44.6074 47.6273 44.6074C48.3548 44.6074 48.9408 44.2852 49.263 43.709H49.3412V44.7539C49.3412 45.4766 48.8236 45.8867 47.9496 45.8867C47.2318 45.8867 46.8021 45.6279 46.7142 45.2617L46.7093 45.252H45.64L45.6302 45.2617C45.7572 46.1455 46.5873 46.7363 47.9349 46.7363ZM47.9203 43.7334C47.017 43.7334 46.5091 43.0449 46.5091 42.0586V42.0488C46.5091 41.0625 47.017 40.3691 47.9203 40.3691C48.8138 40.3691 49.3607 41.0625 49.3607 42.0488V42.0586C49.3607 43.0498 48.8187 43.7334 47.9203 43.7334ZM53.901 44.9688C55.2584 44.9688 55.9908 44.1875 56.1666 43.4893L56.1764 43.4453L55.1559 43.4502L55.1363 43.4893C55.0094 43.7627 54.6041 44.0996 53.9254 44.0996C53.0514 44.0996 52.4947 43.5088 52.4752 42.4932H56.235V42.1221C56.235 40.5303 55.3268 39.4609 53.8473 39.4609C52.3678 39.4609 51.4107 40.5693 51.4107 42.2246V42.2295C51.4107 43.9092 52.3482 44.9688 53.901 44.9688ZM53.8521 40.3301C54.5699 40.3301 55.1021 40.7891 55.1852 41.7363H52.4898C52.5826 40.8232 53.1295 40.3301 53.8521 40.3301ZM59.1834 44.9688C60.4432 44.9688 61.3807 44.2998 61.3807 43.3184V43.3086C61.3807 42.542 60.8924 42.1074 59.8719 41.8682L59.0321 41.6777C58.4364 41.5361 58.1922 41.3311 58.1922 40.999V40.9893C58.1922 40.5645 58.6121 40.2764 59.1932 40.2764C59.7889 40.2764 60.1649 40.5547 60.2674 40.9258V40.9355H61.2782V40.9307C61.1854 40.0664 60.409 39.4609 59.1981 39.4609C57.9969 39.4609 57.1375 40.125 57.1375 41.0479V41.0527C57.1375 41.8291 57.6014 42.2832 58.6024 42.5127L59.4471 42.708C60.0623 42.8496 60.3114 43.0742 60.3114 43.4062V43.416C60.3114 43.8506 59.8573 44.1484 59.203 44.1484C58.5731 44.1484 58.1873 43.8799 58.0555 43.4795L58.0506 43.4746H56.9911V43.4795C57.0936 44.3682 57.9041 44.9688 59.1834 44.9688Z" fill="#8A8A8A"/>
<path d="M30 10H46C47.1 10 48 10.9 48 12V24C48 25.1 47.1 26 46 26H30C28.9 26 28 25.1 28 24V12C28 10.9 28.9 10 30 10Z" stroke="#8A8A8A" stroke-width="2" stroke-linecap="round" stroke-linejoin="round"/>
<path d="M48 12L38 19L28 12" stroke="#8A8A8A" stroke-width="2" stroke-linecap="round" stroke-linejoin="round"/>
</svg>
