<svg width="76" height="49" viewBox="0 0 76 49" fill="none" xmlns="http://www.w3.org/2000/svg">
<path d="M21.132 44.8662H25.6046V43.9238H22.2257V41.7314H25.424V40.8232H22.2257V38.7627H25.6046V37.8203H21.132V44.8662ZM26.4145 44.8662H27.5668L28.7289 42.9521H28.807L29.9691 44.8662H31.1752L29.4027 42.1807L31.1557 39.5635H29.9838L28.851 41.458H28.768L27.6254 39.5635H26.3998L28.1771 42.2246L26.4145 44.8662ZM32.0827 44.8662H33.1422V41.7559C33.1422 40.9014 33.6256 40.3691 34.402 40.3691C35.1784 40.3691 35.5446 40.8037 35.5446 41.6826V44.8662H36.5993V41.4336C36.5993 40.1689 35.945 39.4609 34.7584 39.4609C33.987 39.4609 33.4791 39.8027 33.2204 40.3691H33.1422V37.4834H32.0827V44.8662ZM38.3905 38.6162C38.7518 38.6162 39.0546 38.3184 39.0546 37.957C39.0546 37.5908 38.7518 37.293 38.3905 37.293C38.0243 37.293 37.7264 37.5908 37.7264 37.957C37.7264 38.3184 38.0243 38.6162 38.3905 38.6162ZM37.8583 44.8662H38.913V39.5635H37.8583V44.8662ZM43.0333 44.9541C44.3712 44.9541 45.2306 43.8848 45.2306 42.2197V42.21C45.2306 40.5303 44.381 39.4707 43.0333 39.4707C42.3058 39.4707 41.6857 39.832 41.4025 40.4033H41.3243V37.4834H40.2648V44.8662H41.3243V44.0312H41.4025C41.7101 44.6123 42.2911 44.9541 43.0333 44.9541ZM42.7355 44.0508C41.8517 44.0508 41.3048 43.3525 41.3048 42.2197V42.21C41.3048 41.0771 41.8517 40.3789 42.7355 40.3789C43.6193 40.3789 44.1515 41.0723 44.1515 42.21V42.2197C44.1515 43.3574 43.6193 44.0508 42.7355 44.0508ZM46.807 38.6162C47.1683 38.6162 47.4711 38.3184 47.4711 37.957C47.4711 37.5908 47.1683 37.293 46.807 37.293C46.4408 37.293 46.1429 37.5908 46.1429 37.957C46.1429 38.3184 46.4408 38.6162 46.807 38.6162ZM46.2748 44.8662H47.3295V39.5635H46.2748V44.8662ZM50.6344 44.9004C50.8395 44.9004 51.0348 44.876 51.2057 44.8467V44.002C51.0592 44.0166 50.9664 44.0215 50.8053 44.0215C50.2828 44.0215 50.068 43.7871 50.068 43.2158V40.3984H51.2057V39.5635H50.068V38.2256H48.9889V39.5635H48.1588V40.3984H48.9889V43.4697C48.9889 44.4902 49.4674 44.9004 50.6344 44.9004ZM54.0516 44.9688C55.3114 44.9688 56.2489 44.2998 56.2489 43.3184V43.3086C56.2489 42.542 55.7606 42.1074 54.7401 41.8682L53.9002 41.6777C53.3045 41.5361 53.0604 41.3311 53.0604 40.999V40.9893C53.0604 40.5645 53.4803 40.2764 54.0614 40.2764C54.6571 40.2764 55.033 40.5547 55.1356 40.9258V40.9355H56.1463V40.9307C56.0536 40.0664 55.2772 39.4609 54.0662 39.4609C52.8651 39.4609 52.0057 40.125 52.0057 41.0479V41.0527C52.0057 41.8291 52.4696 42.2832 53.4705 42.5127L54.3153 42.708C54.9305 42.8496 55.1795 43.0742 55.1795 43.4062V43.416C55.1795 43.8506 54.7254 44.1484 54.0711 44.1484C53.4412 44.1484 53.0555 43.8799 52.9237 43.4795L52.9188 43.4746H51.8592V43.4795C51.9618 44.3682 52.7723 44.9688 54.0516 44.9688Z" fill="#C80764"/>
<path d="M45 9H31C29.8954 9 29 9.89543 29 11V25C29 26.1046 29.8954 27 31 27H45C46.1046 27 47 26.1046 47 25V11C47 9.89543 46.1046 9 45 9Z" stroke="#C80764" stroke-width="2" stroke-linecap="round" stroke-linejoin="round"/>
<path d="M34.5 16C35.3284 16 36 15.3284 36 14.5C36 13.6716 35.3284 13 34.5 13C33.6716 13 33 13.6716 33 14.5C33 15.3284 33.6716 16 34.5 16Z" stroke="#C80764" stroke-width="2" stroke-linecap="round" stroke-linejoin="round"/>
<path d="M47 21L42 16L31 27" stroke="#C80764" stroke-width="2" stroke-linecap="round" stroke-linejoin="round"/>
</svg>
