<svg width="76" height="49" viewBox="0 0 76 49" fill="none" xmlns="http://www.w3.org/2000/svg">
<path d="M23.9593 44.8662H25.053V42.459H26.7034C28.0852 42.459 29.0423 41.5166 29.0423 40.1396V40.1299C29.0423 38.748 28.0852 37.8203 26.7034 37.8203H23.9593V44.8662ZM26.43 38.7432C27.3772 38.7432 27.929 39.2559 27.929 40.1348V40.1445C27.929 41.0283 27.3772 41.541 26.43 41.541H25.053V38.7432H26.43ZM30.0913 44.8662H31.1509V41.6973C31.1509 40.9307 31.7027 40.4326 32.5132 40.4326C32.7134 40.4326 32.8941 40.457 33.0845 40.4961V39.5195C32.9771 39.4951 32.7915 39.4707 32.6206 39.4707C31.9126 39.4707 31.4195 39.8027 31.229 40.3643H31.1509V39.5635H30.0913V44.8662ZM35.9646 44.9688C37.5173 44.9688 38.4695 43.9287 38.4695 42.2197V42.21C38.4695 40.501 37.5125 39.4609 35.9646 39.4609C34.4119 39.4609 33.4548 40.5059 33.4548 42.21V42.2197C33.4548 43.9287 34.407 44.9688 35.9646 44.9688ZM35.9646 44.085C35.0515 44.085 34.5388 43.3965 34.5388 42.2197V42.21C34.5388 41.0332 35.0515 40.3447 35.9646 40.3447C36.8728 40.3447 37.3904 41.0332 37.3904 42.21V42.2197C37.3904 43.3916 36.8728 44.085 35.9646 44.085ZM39.8701 44.8662H40.9248V40.3984H42.0918V39.5635H40.915V39.0557C40.915 38.5186 41.1445 38.2354 41.7305 38.2354C41.8965 38.2354 42.0381 38.2451 42.1357 38.2598V37.4834C41.9551 37.4541 41.75 37.4346 41.5107 37.4346C40.4072 37.4346 39.8701 37.9521 39.8701 39.0068V39.5635H38.9961V40.3984H39.8701V44.8662ZM43.595 38.6162C43.9563 38.6162 44.259 38.3184 44.259 37.957C44.259 37.5908 43.9563 37.293 43.595 37.293C43.2288 37.293 42.9309 37.5908 42.9309 37.957C42.9309 38.3184 43.2288 38.6162 43.595 38.6162ZM43.0627 44.8662H44.1174V39.5635H43.0627V44.8662ZM45.4692 44.8662H46.5288V37.4834H45.4692V44.8662ZM50.0925 44.9688C51.4499 44.9688 52.1823 44.1875 52.3581 43.4893L52.3679 43.4453L51.3474 43.4502L51.3279 43.4893C51.2009 43.7627 50.7956 44.0996 50.1169 44.0996C49.2429 44.0996 48.6862 43.5088 48.6667 42.4932H52.4265V42.1221C52.4265 40.5303 51.5183 39.4609 50.0388 39.4609C48.5593 39.4609 47.6023 40.5693 47.6023 42.2246V42.2295C47.6023 43.9092 48.5398 44.9688 50.0925 44.9688ZM50.0437 40.3301C50.7614 40.3301 51.2937 40.7891 51.3767 41.7363H48.6814C48.7741 40.8232 49.321 40.3301 50.0437 40.3301Z" fill="#8A8A8A"/>
<path d="M46 28V26C46 24.9391 45.5786 23.9217 44.8284 23.1716C44.0783 22.4214 43.0609 22 42 22H34C32.9391 22 31.9217 22.4214 31.1716 23.1716C30.4214 23.9217 30 24.9391 30 26V28" stroke="#8A8A8A" stroke-width="2" stroke-linecap="round" stroke-linejoin="round"/>
<path d="M38 18C40.2091 18 42 16.2091 42 14C42 11.7909 40.2091 10 38 10C35.7909 10 34 11.7909 34 14C34 16.2091 35.7909 18 38 18Z" stroke="#8A8A8A" stroke-width="2" stroke-linecap="round" stroke-linejoin="round"/>
</svg>
